%TF.GenerationSoftware,KiCad,Pcbnew,9.0.1*%
%TF.CreationDate,2025-04-21T12:30:26+02:00*%
%TF.ProjectId,led-leiste-v3,6c65642d-6c65-4697-9374-652d76332e6b,0.4.0*%
%TF.SameCoordinates,Original*%
%TF.FileFunction,Soldermask,Bot*%
%TF.FilePolarity,Negative*%
%FSLAX46Y46*%
G04 Gerber Fmt 4.6, Leading zero omitted, Abs format (unit mm)*
G04 Created by KiCad (PCBNEW 9.0.1) date 2025-04-21 12:30:26*
%MOMM*%
%LPD*%
G01*
G04 APERTURE LIST*
%ADD10C,0.010000*%
%ADD11C,4.500000*%
%ADD12C,0.650000*%
%ADD13O,2.304000X1.204000*%
G04 APERTURE END LIST*
D10*
%TO.C,J1*%
X43281000Y-95403500D02*
X43313000Y-95405500D01*
X43344000Y-95409500D01*
X43375000Y-95415500D01*
X43405000Y-95422500D01*
X43435000Y-95431500D01*
X43465000Y-95442500D01*
X43494000Y-95454500D01*
X43522000Y-95467500D01*
X43550000Y-95482500D01*
X43577000Y-95499500D01*
X43603000Y-95517500D01*
X43628000Y-95536500D01*
X43651000Y-95556500D01*
X43674000Y-95578500D01*
X43696000Y-95601500D01*
X43716000Y-95624500D01*
X43735000Y-95649500D01*
X43753000Y-95675500D01*
X43770000Y-95702500D01*
X43785000Y-95730500D01*
X43798000Y-95758500D01*
X43810000Y-95787500D01*
X43821000Y-95817500D01*
X43830000Y-95847500D01*
X43837000Y-95877500D01*
X43843000Y-95908500D01*
X43847000Y-95939500D01*
X43849000Y-95971500D01*
X43850000Y-96002500D01*
X43849000Y-96033500D01*
X43847000Y-96065500D01*
X43843000Y-96096500D01*
X43837000Y-96127500D01*
X43830000Y-96157500D01*
X43821000Y-96187500D01*
X43810000Y-96217500D01*
X43798000Y-96246500D01*
X43785000Y-96274500D01*
X43770000Y-96302500D01*
X43753000Y-96329500D01*
X43735000Y-96355500D01*
X43716000Y-96380500D01*
X43696000Y-96403500D01*
X43674000Y-96426500D01*
X43651000Y-96448500D01*
X43628000Y-96468500D01*
X43603000Y-96487500D01*
X43577000Y-96505500D01*
X43550000Y-96522500D01*
X43522000Y-96537500D01*
X43494000Y-96550500D01*
X43465000Y-96562500D01*
X43435000Y-96573500D01*
X43405000Y-96582500D01*
X43375000Y-96589500D01*
X43344000Y-96595500D01*
X43313000Y-96599500D01*
X43281000Y-96601500D01*
X43250000Y-96602500D01*
X42850000Y-96602500D01*
X42450000Y-96602500D01*
X42419000Y-96601500D01*
X42387000Y-96599500D01*
X42356000Y-96595500D01*
X42325000Y-96589500D01*
X42295000Y-96582500D01*
X42265000Y-96573500D01*
X42235000Y-96562500D01*
X42206000Y-96550500D01*
X42178000Y-96537500D01*
X42150000Y-96522500D01*
X42123000Y-96505500D01*
X42097000Y-96487500D01*
X42072000Y-96468500D01*
X42049000Y-96448500D01*
X42026000Y-96426500D01*
X42004000Y-96403500D01*
X41984000Y-96380500D01*
X41965000Y-96355500D01*
X41947000Y-96329500D01*
X41930000Y-96302500D01*
X41915000Y-96274500D01*
X41902000Y-96246500D01*
X41890000Y-96217500D01*
X41879000Y-96187500D01*
X41870000Y-96157500D01*
X41863000Y-96127500D01*
X41857000Y-96096500D01*
X41853000Y-96065500D01*
X41851000Y-96033500D01*
X41850000Y-96002500D01*
X41851000Y-95971500D01*
X41853000Y-95939500D01*
X41857000Y-95908500D01*
X41863000Y-95877500D01*
X41870000Y-95847500D01*
X41879000Y-95817500D01*
X41890000Y-95787500D01*
X41902000Y-95758500D01*
X41915000Y-95730500D01*
X41930000Y-95702500D01*
X41947000Y-95675500D01*
X41965000Y-95649500D01*
X41984000Y-95624500D01*
X42004000Y-95601500D01*
X42026000Y-95578500D01*
X42049000Y-95556500D01*
X42072000Y-95536500D01*
X42097000Y-95517500D01*
X42123000Y-95499500D01*
X42150000Y-95482500D01*
X42178000Y-95467500D01*
X42206000Y-95454500D01*
X42235000Y-95442500D01*
X42265000Y-95431500D01*
X42295000Y-95422500D01*
X42325000Y-95415500D01*
X42356000Y-95409500D01*
X42387000Y-95405500D01*
X42419000Y-95403500D01*
X42450000Y-95402500D01*
X42850000Y-95402500D01*
X43250000Y-95402500D01*
X43281000Y-95403500D01*
G36*
X43281000Y-95403500D02*
G01*
X43313000Y-95405500D01*
X43344000Y-95409500D01*
X43375000Y-95415500D01*
X43405000Y-95422500D01*
X43435000Y-95431500D01*
X43465000Y-95442500D01*
X43494000Y-95454500D01*
X43522000Y-95467500D01*
X43550000Y-95482500D01*
X43577000Y-95499500D01*
X43603000Y-95517500D01*
X43628000Y-95536500D01*
X43651000Y-95556500D01*
X43674000Y-95578500D01*
X43696000Y-95601500D01*
X43716000Y-95624500D01*
X43735000Y-95649500D01*
X43753000Y-95675500D01*
X43770000Y-95702500D01*
X43785000Y-95730500D01*
X43798000Y-95758500D01*
X43810000Y-95787500D01*
X43821000Y-95817500D01*
X43830000Y-95847500D01*
X43837000Y-95877500D01*
X43843000Y-95908500D01*
X43847000Y-95939500D01*
X43849000Y-95971500D01*
X43850000Y-96002500D01*
X43849000Y-96033500D01*
X43847000Y-96065500D01*
X43843000Y-96096500D01*
X43837000Y-96127500D01*
X43830000Y-96157500D01*
X43821000Y-96187500D01*
X43810000Y-96217500D01*
X43798000Y-96246500D01*
X43785000Y-96274500D01*
X43770000Y-96302500D01*
X43753000Y-96329500D01*
X43735000Y-96355500D01*
X43716000Y-96380500D01*
X43696000Y-96403500D01*
X43674000Y-96426500D01*
X43651000Y-96448500D01*
X43628000Y-96468500D01*
X43603000Y-96487500D01*
X43577000Y-96505500D01*
X43550000Y-96522500D01*
X43522000Y-96537500D01*
X43494000Y-96550500D01*
X43465000Y-96562500D01*
X43435000Y-96573500D01*
X43405000Y-96582500D01*
X43375000Y-96589500D01*
X43344000Y-96595500D01*
X43313000Y-96599500D01*
X43281000Y-96601500D01*
X43250000Y-96602500D01*
X42850000Y-96602500D01*
X42450000Y-96602500D01*
X42419000Y-96601500D01*
X42387000Y-96599500D01*
X42356000Y-96595500D01*
X42325000Y-96589500D01*
X42295000Y-96582500D01*
X42265000Y-96573500D01*
X42235000Y-96562500D01*
X42206000Y-96550500D01*
X42178000Y-96537500D01*
X42150000Y-96522500D01*
X42123000Y-96505500D01*
X42097000Y-96487500D01*
X42072000Y-96468500D01*
X42049000Y-96448500D01*
X42026000Y-96426500D01*
X42004000Y-96403500D01*
X41984000Y-96380500D01*
X41965000Y-96355500D01*
X41947000Y-96329500D01*
X41930000Y-96302500D01*
X41915000Y-96274500D01*
X41902000Y-96246500D01*
X41890000Y-96217500D01*
X41879000Y-96187500D01*
X41870000Y-96157500D01*
X41863000Y-96127500D01*
X41857000Y-96096500D01*
X41853000Y-96065500D01*
X41851000Y-96033500D01*
X41850000Y-96002500D01*
X41851000Y-95971500D01*
X41853000Y-95939500D01*
X41857000Y-95908500D01*
X41863000Y-95877500D01*
X41870000Y-95847500D01*
X41879000Y-95817500D01*
X41890000Y-95787500D01*
X41902000Y-95758500D01*
X41915000Y-95730500D01*
X41930000Y-95702500D01*
X41947000Y-95675500D01*
X41965000Y-95649500D01*
X41984000Y-95624500D01*
X42004000Y-95601500D01*
X42026000Y-95578500D01*
X42049000Y-95556500D01*
X42072000Y-95536500D01*
X42097000Y-95517500D01*
X42123000Y-95499500D01*
X42150000Y-95482500D01*
X42178000Y-95467500D01*
X42206000Y-95454500D01*
X42235000Y-95442500D01*
X42265000Y-95431500D01*
X42295000Y-95422500D01*
X42325000Y-95415500D01*
X42356000Y-95409500D01*
X42387000Y-95405500D01*
X42419000Y-95403500D01*
X42450000Y-95402500D01*
X42850000Y-95402500D01*
X43250000Y-95402500D01*
X43281000Y-95403500D01*
G37*
X43281000Y-104043500D02*
X43313000Y-104045500D01*
X43344000Y-104049500D01*
X43375000Y-104055500D01*
X43405000Y-104062500D01*
X43435000Y-104071500D01*
X43465000Y-104082500D01*
X43494000Y-104094500D01*
X43522000Y-104107500D01*
X43550000Y-104122500D01*
X43577000Y-104139500D01*
X43603000Y-104157500D01*
X43628000Y-104176500D01*
X43651000Y-104196500D01*
X43674000Y-104218500D01*
X43696000Y-104241500D01*
X43716000Y-104264500D01*
X43735000Y-104289500D01*
X43753000Y-104315500D01*
X43770000Y-104342500D01*
X43785000Y-104370500D01*
X43798000Y-104398500D01*
X43810000Y-104427500D01*
X43821000Y-104457500D01*
X43830000Y-104487500D01*
X43837000Y-104517500D01*
X43843000Y-104548500D01*
X43847000Y-104579500D01*
X43849000Y-104611500D01*
X43850000Y-104642500D01*
X43849000Y-104673500D01*
X43847000Y-104705500D01*
X43843000Y-104736500D01*
X43837000Y-104767500D01*
X43830000Y-104797500D01*
X43821000Y-104827500D01*
X43810000Y-104857500D01*
X43798000Y-104886500D01*
X43785000Y-104914500D01*
X43770000Y-104942500D01*
X43753000Y-104969500D01*
X43735000Y-104995500D01*
X43716000Y-105020500D01*
X43696000Y-105043500D01*
X43674000Y-105066500D01*
X43651000Y-105088500D01*
X43628000Y-105108500D01*
X43603000Y-105127500D01*
X43577000Y-105145500D01*
X43550000Y-105162500D01*
X43522000Y-105177500D01*
X43494000Y-105190500D01*
X43465000Y-105202500D01*
X43435000Y-105213500D01*
X43405000Y-105222500D01*
X43375000Y-105229500D01*
X43344000Y-105235500D01*
X43313000Y-105239500D01*
X43281000Y-105241500D01*
X43250000Y-105242500D01*
X42850000Y-105242500D01*
X42450000Y-105242500D01*
X42419000Y-105241500D01*
X42387000Y-105239500D01*
X42356000Y-105235500D01*
X42325000Y-105229500D01*
X42295000Y-105222500D01*
X42265000Y-105213500D01*
X42235000Y-105202500D01*
X42206000Y-105190500D01*
X42178000Y-105177500D01*
X42150000Y-105162500D01*
X42123000Y-105145500D01*
X42097000Y-105127500D01*
X42072000Y-105108500D01*
X42049000Y-105088500D01*
X42026000Y-105066500D01*
X42004000Y-105043500D01*
X41984000Y-105020500D01*
X41965000Y-104995500D01*
X41947000Y-104969500D01*
X41930000Y-104942500D01*
X41915000Y-104914500D01*
X41902000Y-104886500D01*
X41890000Y-104857500D01*
X41879000Y-104827500D01*
X41870000Y-104797500D01*
X41863000Y-104767500D01*
X41857000Y-104736500D01*
X41853000Y-104705500D01*
X41851000Y-104673500D01*
X41850000Y-104642500D01*
X41851000Y-104611500D01*
X41853000Y-104579500D01*
X41857000Y-104548500D01*
X41863000Y-104517500D01*
X41870000Y-104487500D01*
X41879000Y-104457500D01*
X41890000Y-104427500D01*
X41902000Y-104398500D01*
X41915000Y-104370500D01*
X41930000Y-104342500D01*
X41947000Y-104315500D01*
X41965000Y-104289500D01*
X41984000Y-104264500D01*
X42004000Y-104241500D01*
X42026000Y-104218500D01*
X42049000Y-104196500D01*
X42072000Y-104176500D01*
X42097000Y-104157500D01*
X42123000Y-104139500D01*
X42150000Y-104122500D01*
X42178000Y-104107500D01*
X42206000Y-104094500D01*
X42235000Y-104082500D01*
X42265000Y-104071500D01*
X42295000Y-104062500D01*
X42325000Y-104055500D01*
X42356000Y-104049500D01*
X42387000Y-104045500D01*
X42419000Y-104043500D01*
X42450000Y-104042500D01*
X42850000Y-104042500D01*
X43250000Y-104042500D01*
X43281000Y-104043500D01*
G36*
X43281000Y-104043500D02*
G01*
X43313000Y-104045500D01*
X43344000Y-104049500D01*
X43375000Y-104055500D01*
X43405000Y-104062500D01*
X43435000Y-104071500D01*
X43465000Y-104082500D01*
X43494000Y-104094500D01*
X43522000Y-104107500D01*
X43550000Y-104122500D01*
X43577000Y-104139500D01*
X43603000Y-104157500D01*
X43628000Y-104176500D01*
X43651000Y-104196500D01*
X43674000Y-104218500D01*
X43696000Y-104241500D01*
X43716000Y-104264500D01*
X43735000Y-104289500D01*
X43753000Y-104315500D01*
X43770000Y-104342500D01*
X43785000Y-104370500D01*
X43798000Y-104398500D01*
X43810000Y-104427500D01*
X43821000Y-104457500D01*
X43830000Y-104487500D01*
X43837000Y-104517500D01*
X43843000Y-104548500D01*
X43847000Y-104579500D01*
X43849000Y-104611500D01*
X43850000Y-104642500D01*
X43849000Y-104673500D01*
X43847000Y-104705500D01*
X43843000Y-104736500D01*
X43837000Y-104767500D01*
X43830000Y-104797500D01*
X43821000Y-104827500D01*
X43810000Y-104857500D01*
X43798000Y-104886500D01*
X43785000Y-104914500D01*
X43770000Y-104942500D01*
X43753000Y-104969500D01*
X43735000Y-104995500D01*
X43716000Y-105020500D01*
X43696000Y-105043500D01*
X43674000Y-105066500D01*
X43651000Y-105088500D01*
X43628000Y-105108500D01*
X43603000Y-105127500D01*
X43577000Y-105145500D01*
X43550000Y-105162500D01*
X43522000Y-105177500D01*
X43494000Y-105190500D01*
X43465000Y-105202500D01*
X43435000Y-105213500D01*
X43405000Y-105222500D01*
X43375000Y-105229500D01*
X43344000Y-105235500D01*
X43313000Y-105239500D01*
X43281000Y-105241500D01*
X43250000Y-105242500D01*
X42850000Y-105242500D01*
X42450000Y-105242500D01*
X42419000Y-105241500D01*
X42387000Y-105239500D01*
X42356000Y-105235500D01*
X42325000Y-105229500D01*
X42295000Y-105222500D01*
X42265000Y-105213500D01*
X42235000Y-105202500D01*
X42206000Y-105190500D01*
X42178000Y-105177500D01*
X42150000Y-105162500D01*
X42123000Y-105145500D01*
X42097000Y-105127500D01*
X42072000Y-105108500D01*
X42049000Y-105088500D01*
X42026000Y-105066500D01*
X42004000Y-105043500D01*
X41984000Y-105020500D01*
X41965000Y-104995500D01*
X41947000Y-104969500D01*
X41930000Y-104942500D01*
X41915000Y-104914500D01*
X41902000Y-104886500D01*
X41890000Y-104857500D01*
X41879000Y-104827500D01*
X41870000Y-104797500D01*
X41863000Y-104767500D01*
X41857000Y-104736500D01*
X41853000Y-104705500D01*
X41851000Y-104673500D01*
X41850000Y-104642500D01*
X41851000Y-104611500D01*
X41853000Y-104579500D01*
X41857000Y-104548500D01*
X41863000Y-104517500D01*
X41870000Y-104487500D01*
X41879000Y-104457500D01*
X41890000Y-104427500D01*
X41902000Y-104398500D01*
X41915000Y-104370500D01*
X41930000Y-104342500D01*
X41947000Y-104315500D01*
X41965000Y-104289500D01*
X41984000Y-104264500D01*
X42004000Y-104241500D01*
X42026000Y-104218500D01*
X42049000Y-104196500D01*
X42072000Y-104176500D01*
X42097000Y-104157500D01*
X42123000Y-104139500D01*
X42150000Y-104122500D01*
X42178000Y-104107500D01*
X42206000Y-104094500D01*
X42235000Y-104082500D01*
X42265000Y-104071500D01*
X42295000Y-104062500D01*
X42325000Y-104055500D01*
X42356000Y-104049500D01*
X42387000Y-104045500D01*
X42419000Y-104043500D01*
X42450000Y-104042500D01*
X42850000Y-104042500D01*
X43250000Y-104042500D01*
X43281000Y-104043500D01*
G37*
%TD*%
D11*
%TO.C,H1*%
X51750000Y-92500000D03*
%TD*%
%TO.C,H3*%
X257250000Y-92500000D03*
%TD*%
%TO.C,H2*%
X51750000Y-107500000D03*
%TD*%
%TO.C,H4*%
X257250000Y-107500000D03*
%TD*%
D12*
%TO.C,J1*%
X46530000Y-97432500D03*
X46530000Y-103212500D03*
D13*
X47030000Y-96002500D03*
X47030000Y-104642500D03*
%TD*%
M02*
